<mxfile host="app.diagrams.net" modified="2023-11-02T10:31:32.322Z" agent="Mozilla/5.0 (X11; Ubuntu; Linux x86_64; rv:109.0) Gecko/20100101 Firefox/119.0" etag="NBFUzp4WT4iONCSSqb-3" version="21.2.9" type="device">
  <diagram id="R2lEEEUBdFMjLlhIrx00" name="Page-1">
    <mxGraphModel dx="1364" dy="850" grid="1" gridSize="10" guides="1" tooltips="1" connect="1" arrows="1" fold="1" page="1" pageScale="1" pageWidth="850" pageHeight="1100" math="0" shadow="0" extFonts="Permanent Marker^https://fonts.googleapis.com/css?family=Permanent+Marker">
      <root>
        <mxCell id="0" />
        <mxCell id="1" parent="0" />
        <mxCell id="GybCl5w8vhItavz9TYpU-22" value="" style="rounded=0;whiteSpace=wrap;html=1;dashed=1;strokeColor=#000000;strokeWidth=1;fillColor=#9694DE;" parent="1" vertex="1">
          <mxGeometry x="330" y="260" width="270" height="260" as="geometry" />
        </mxCell>
        <mxCell id="GybCl5w8vhItavz9TYpU-20" value="" style="rounded=0;whiteSpace=wrap;html=1;dashed=1;strokeColor=#000000;strokeWidth=1;fillColor=#9694DE;" parent="1" vertex="1">
          <mxGeometry x="30" y="120" width="290" height="280" as="geometry" />
        </mxCell>
        <mxCell id="GybCl5w8vhItavz9TYpU-8" style="edgeStyle=orthogonalEdgeStyle;rounded=0;orthogonalLoop=1;jettySize=auto;html=1;entryX=0;entryY=0.5;entryDx=0;entryDy=0;" parent="1" source="GybCl5w8vhItavz9TYpU-1" target="GybCl5w8vhItavz9TYpU-2" edge="1">
          <mxGeometry relative="1" as="geometry" />
        </mxCell>
        <mxCell id="GybCl5w8vhItavz9TYpU-13" style="edgeStyle=orthogonalEdgeStyle;curved=1;rounded=0;orthogonalLoop=1;jettySize=auto;html=1;exitX=0.5;exitY=1;exitDx=0;exitDy=0;entryX=0;entryY=0.5;entryDx=0;entryDy=0;" parent="1" source="GybCl5w8vhItavz9TYpU-1" target="GybCl5w8vhItavz9TYpU-3" edge="1">
          <mxGeometry relative="1" as="geometry">
            <mxPoint x="120" y="350" as="targetPoint" />
          </mxGeometry>
        </mxCell>
        <mxCell id="GybCl5w8vhItavz9TYpU-1" value="Organization&lt;br&gt;(data controller)" style="rounded=1;arcSize=10;whiteSpace=wrap;html=1;align=center;strokeWidth=3;strokeColor=#090765;" parent="1" vertex="1">
          <mxGeometry x="50" y="260" width="100" height="40" as="geometry" />
        </mxCell>
        <mxCell id="GybCl5w8vhItavz9TYpU-10" style="edgeStyle=orthogonalEdgeStyle;rounded=0;orthogonalLoop=1;jettySize=auto;html=1;entryX=0.5;entryY=0;entryDx=0;entryDy=0;curved=1;" parent="1" source="GybCl5w8vhItavz9TYpU-2" target="GybCl5w8vhItavz9TYpU-3" edge="1">
          <mxGeometry relative="1" as="geometry" />
        </mxCell>
        <mxCell id="GybCl5w8vhItavz9TYpU-2" value="Policy&lt;br&gt;(data policy)" style="rounded=1;arcSize=10;whiteSpace=wrap;html=1;align=center;strokeWidth=3;strokeColor=#090765;" parent="1" vertex="1">
          <mxGeometry x="200" y="260" width="100" height="40" as="geometry" />
        </mxCell>
        <mxCell id="GybCl5w8vhItavz9TYpU-14" style="edgeStyle=orthogonalEdgeStyle;curved=1;rounded=0;orthogonalLoop=1;jettySize=auto;html=1;exitX=1;exitY=0.5;exitDx=0;exitDy=0;entryX=0;entryY=0.5;entryDx=0;entryDy=0;" parent="1" source="GybCl5w8vhItavz9TYpU-3" target="GybCl5w8vhItavz9TYpU-6" edge="1">
          <mxGeometry relative="1" as="geometry" />
        </mxCell>
        <mxCell id="GybCl5w8vhItavz9TYpU-3" value="Data Agreement" style="rounded=1;arcSize=10;whiteSpace=wrap;html=1;align=center;strokeWidth=3;strokeColor=#090765;" parent="1" vertex="1">
          <mxGeometry x="200" y="340" width="100" height="40" as="geometry" />
        </mxCell>
        <mxCell id="GybCl5w8vhItavz9TYpU-17" style="edgeStyle=orthogonalEdgeStyle;curved=1;rounded=0;orthogonalLoop=1;jettySize=auto;html=1;exitX=0.5;exitY=1;exitDx=0;exitDy=0;entryX=0.5;entryY=0;entryDx=0;entryDy=0;dashed=1;" parent="1" source="GybCl5w8vhItavz9TYpU-4" target="GybCl5w8vhItavz9TYpU-6" edge="1">
          <mxGeometry relative="1" as="geometry" />
        </mxCell>
        <mxCell id="GybCl5w8vhItavz9TYpU-4" value="Organization&lt;br&gt;(data provider or consumer)" style="rounded=1;arcSize=10;whiteSpace=wrap;html=1;align=center;dashed=1;" parent="1" vertex="1">
          <mxGeometry x="355" y="180" width="130" height="60" as="geometry" />
        </mxCell>
        <mxCell id="GybCl5w8vhItavz9TYpU-15" style="edgeStyle=orthogonalEdgeStyle;curved=1;rounded=0;orthogonalLoop=1;jettySize=auto;html=1;exitX=0.5;exitY=1;exitDx=0;exitDy=0;entryX=1;entryY=0.5;entryDx=0;entryDy=0;" parent="1" source="GybCl5w8vhItavz9TYpU-5" target="GybCl5w8vhItavz9TYpU-6" edge="1">
          <mxGeometry relative="1" as="geometry" />
        </mxCell>
        <mxCell id="GybCl5w8vhItavz9TYpU-5" value="Individual" style="rounded=1;arcSize=10;whiteSpace=wrap;html=1;align=center;strokeWidth=3;strokeColor=#090765;" parent="1" vertex="1">
          <mxGeometry x="470" y="280" width="100" height="40" as="geometry" />
        </mxCell>
        <mxCell id="GybCl5w8vhItavz9TYpU-6" value="Consent Record" style="rounded=1;arcSize=10;whiteSpace=wrap;html=1;align=center;strokeWidth=3;strokeColor=#090765;" parent="1" vertex="1">
          <mxGeometry x="370" y="340" width="100" height="40" as="geometry" />
        </mxCell>
        <mxCell id="GybCl5w8vhItavz9TYpU-16" style="edgeStyle=orthogonalEdgeStyle;curved=1;rounded=0;orthogonalLoop=1;jettySize=auto;html=1;exitX=0;exitY=0.5;exitDx=0;exitDy=0;entryX=1;entryY=0.5;entryDx=0;entryDy=0;dashed=1;" parent="1" source="GybCl5w8vhItavz9TYpU-7" target="GybCl5w8vhItavz9TYpU-5" edge="1">
          <mxGeometry relative="1" as="geometry" />
        </mxCell>
        <mxCell id="GybCl5w8vhItavz9TYpU-7" value="External Registration&lt;br&gt;(functional ID or foundational ID)" style="rounded=1;arcSize=10;whiteSpace=wrap;html=1;align=center;dashed=1;" parent="1" vertex="1">
          <mxGeometry x="630" y="260" width="150" height="80" as="geometry" />
        </mxCell>
        <mxCell id="GybCl5w8vhItavz9TYpU-18" value="&lt;div&gt;External system&lt;/div&gt;" style="rounded=1;arcSize=10;whiteSpace=wrap;html=1;align=center;dashed=1;strokeColor=#000000;strokeWidth=1;" parent="1" vertex="1">
          <mxGeometry x="680" y="480" width="100" height="40" as="geometry" />
        </mxCell>
        <mxCell id="GybCl5w8vhItavz9TYpU-19" value="Internal model" style="rounded=1;arcSize=10;whiteSpace=wrap;html=1;align=center;strokeWidth=3;strokeColor=#090765;" parent="1" vertex="1">
          <mxGeometry x="680" y="430" width="100" height="40" as="geometry" />
        </mxCell>
        <mxCell id="GybCl5w8vhItavz9TYpU-21" value="&lt;h1&gt;Configuration&lt;/h1&gt;&lt;p&gt;Models of the Consent BB relating to the configuration of *what* can be consented to, the specific agreements and the policy governing these agreements.&lt;br&gt;&lt;/p&gt;" style="text;html=1;strokeColor=none;fillColor=none;spacing=5;spacingTop=-20;whiteSpace=wrap;overflow=hidden;rounded=0;dashed=1;fontColor=#090765;" parent="1" vertex="1">
          <mxGeometry x="35" y="130" width="280" height="120" as="geometry" />
        </mxCell>
        <mxCell id="GybCl5w8vhItavz9TYpU-23" value="&lt;h1&gt;Individual consent&lt;br&gt;&lt;/h1&gt;&lt;p&gt;When consent is captured, consent records are linked to an individual (natural identity can be anonymized). These records are available for data consumers and providers  to confirm/verify consent.&lt;br&gt;&lt;/p&gt;" style="text;html=1;strokeColor=none;fillColor=none;spacing=5;spacingTop=-20;whiteSpace=wrap;overflow=hidden;rounded=0;dashed=1;fontColor=#090765;" parent="1" vertex="1">
          <mxGeometry x="340" y="390" width="250" height="130" as="geometry" />
        </mxCell>
        <mxCell id="GybCl5w8vhItavz9TYpU-24" value="Consent Building Block&lt;br&gt;Simplified Model" style="text;strokeColor=none;fillColor=none;html=1;fontSize=24;fontStyle=1;verticalAlign=middle;align=center;dashed=1;fontColor=#090765;" parent="1" vertex="1">
          <mxGeometry x="490" y="130" width="290" height="60" as="geometry" />
        </mxCell>
        <mxCell id="GybCl5w8vhItavz9TYpU-25" value="" style="endArrow=classic;html=1;rounded=0;curved=1;" parent="1" edge="1">
          <mxGeometry width="50" height="50" relative="1" as="geometry">
            <mxPoint x="760" y="418" as="sourcePoint" />
            <mxPoint x="700" y="418" as="targetPoint" />
          </mxGeometry>
        </mxCell>
        <mxCell id="GybCl5w8vhItavz9TYpU-26" value="1:many" style="text;html=1;strokeColor=none;fillColor=none;align=center;verticalAlign=middle;whiteSpace=wrap;rounded=0;dashed=1;" parent="1" vertex="1">
          <mxGeometry x="700" y="390" width="60" height="30" as="geometry" />
        </mxCell>
        <mxCell id="GybCl5w8vhItavz9TYpU-27" style="edgeStyle=orthogonalEdgeStyle;curved=1;rounded=0;orthogonalLoop=1;jettySize=auto;html=1;exitX=0.5;exitY=1;exitDx=0;exitDy=0;" parent="1" source="GybCl5w8vhItavz9TYpU-26" target="GybCl5w8vhItavz9TYpU-26" edge="1">
          <mxGeometry relative="1" as="geometry" />
        </mxCell>
      </root>
    </mxGraphModel>
  </diagram>
</mxfile>
